<svg width="33" height="33" viewBox="0 0 33 33" fill="none" xmlns="http://www.w3.org/2000/svg">
<path d="M6.3525 24.915C7.755 23.8425 9.3225 22.9966 11.055 22.3773C12.7875 21.7591 14.6025 21.45 16.5 21.45C18.3975 21.45 20.2125 21.7591 21.945 22.3773C23.6775 22.9966 25.245 23.8425 26.6475 24.915C27.61 23.7875 28.3596 22.5087 28.8965 21.0787C29.4321 19.6487 29.7 18.1225 29.7 16.5C29.7 12.8425 28.4146 9.72785 25.844 7.15605C23.2722 4.58535 20.1575 3.3 16.5 3.3C12.8425 3.3 9.7284 4.58535 7.1577 7.15605C4.5859 9.72785 3.3 12.8425 3.3 16.5C3.3 18.1225 3.5684 19.6487 4.1052 21.0787C4.6409 22.5087 5.39 23.7875 6.3525 24.915ZM16.5 18.15C14.8775 18.15 13.5091 17.5934 12.3948 16.4802C11.2816 15.3659 10.725 13.9975 10.725 12.375C10.725 10.7525 11.2816 9.3841 12.3948 8.2698C13.5091 7.1566 14.8775 6.6 16.5 6.6C18.1225 6.6 19.4909 7.1566 20.6052 8.2698C21.7184 9.3841 22.275 10.7525 22.275 12.375C22.275 13.9975 21.7184 15.3659 20.6052 16.4802C19.4909 17.5934 18.1225 18.15 16.5 18.15ZM16.5 33C14.2175 33 12.0725 32.5666 10.065 31.6998C8.0575 30.8341 6.31125 29.6588 4.82625 28.1737C3.34125 26.6887 2.1659 24.9425 1.3002 22.935C0.4334 20.9275 0 18.7825 0 16.5C0 14.2175 0.4334 12.0725 1.3002 10.065C2.1659 8.0575 3.34125 6.31125 4.82625 4.82625C6.31125 3.34125 8.0575 2.16535 10.065 1.29855C12.0725 0.43285 14.2175 0 16.5 0C18.7825 0 20.9275 0.43285 22.935 1.29855C24.9425 2.16535 26.6887 3.34125 28.1737 4.82625C29.6588 6.31125 30.8341 8.0575 31.6998 10.065C32.5666 12.0725 33 14.2175 33 16.5C33 18.7825 32.5666 20.9275 31.6998 22.935C30.8341 24.9425 29.6588 26.6887 28.1737 28.1737C26.6887 29.6588 24.9425 30.8341 22.935 31.6998C20.9275 32.5666 18.7825 33 16.5 33Z" fill="url(#paint0_linear_618_195)"/>
<defs>
<linearGradient id="paint0_linear_618_195" x1="-12.1224" y1="38.3878" x2="48.8265" y2="-4.57741e-07" gradientUnits="userSpaceOnUse">
<stop stop-color="#3BA563"/>
<stop offset="1" stop-color="#3B65A5"/>
</linearGradient>
</defs>
</svg>
